<?xml version="1.0" encoding="iso-8859-1"?>
<!-- Generator: Adobe Illustrator 19.0.0, SVG Export Plug-In . SVG Version: 6.00 Build 0)  -->
<svg version="1.1" id="Capa_1" xmlns="http://www.w3.org/2000/svg" xmlns:xlink="http://www.w3.org/1999/xlink" x="0px" y="0px"
	 viewBox="0 0 512.001 512.001" style="enable-background:new 0 0 512.001 512.001;" xml:space="preserve">
<path style="fill:#FFEB6B;" d="M482,426.374H30c-16.569,0-30-13.431-30-30V115.626c0-16.569,13.431-30,30-30h452
	c16.569,0,30,13.431,30,30v280.748C512,412.942,498.569,426.374,482,426.374z"/>
<path style="fill:#FFF8D1;" d="M256,85.626H30c-16.569,0-30,13.431-30,30v280.748c0,16.569,13.431,30,30,30h226V85.626z"/>
<path style="fill:#EB9646;" d="M512,114.835c0-7.096-2.532-13.599-6.739-18.66L312.567,256.632L512,389.358V114.835z"/>
<g>
	<path style="fill:#FFB066;" d="M6.739,96.175C2.532,101.236,0,107.739,0,114.835v274.523l199.433-132.727L6.739,96.175z"/>
	<path style="fill:#FFB066;" d="M312.567,256.632l-27.406,22.821c-16.895,14.069-41.427,14.069-58.322,0l-27.406-22.821L0,389.358
		v7.807c0,16.131,13.077,29.209,29.209,29.209h453.583c16.131,0,29.209-13.077,29.209-29.209v-7.807L312.567,256.632z"/>
</g>
<path style="fill:#FFEB6B;" d="M256,290.004c-10.357,0-20.714-3.517-29.161-10.552l-27.406-22.821L0,389.358v7.807
	c0,16.131,13.077,29.209,29.209,29.209H256V290.004z"/>
<g>
</g>
<g>
</g>
<g>
</g>
<g>
</g>
<g>
</g>
<g>
</g>
<g>
</g>
<g>
</g>
<g>
</g>
<g>
</g>
<g>
</g>
<g>
</g>
<g>
</g>
<g>
</g>
<g>
</g>
</svg>
